<svg width="36" height="37" viewBox="0 0 36 37" fill="none" xmlns="http://www.w3.org/2000/svg">
<path d="M1.56362 21.9249C1.14162 19.7822 0.965247 17.581 1.19175 15.4039C1.3718 13.6735 1.85912 11.8791 2.61879 10.3305C3.35235 8.83493 4.28667 7.55767 5.4524 6.39353C5.73442 6.11188 6.02662 5.84064 6.32777 5.57957C6.62707 5.3201 6.95249 5.05756 7.22593 4.85165C7.86757 4.36849 8.53972 3.9264 9.23357 3.52205C11.0428 2.46774 13.0426 1.79313 15.1147 1.49824C17.1868 1.20334 19.3431 1.3063 21.3886 1.78039C23.4558 2.2595 25.4262 3.11942 27.1577 4.34986C28.8122 5.52564 30.2143 7.05122 31.2977 8.76433C32.3902 10.492 33.1659 12.408 33.5936 14.4065C34.016 16.3794 34.0929 18.4618 33.7654 20.4526C33.6839 20.9483 33.578 21.4394 33.4497 21.925C33.3286 22.383 34.0378 22.5784 34.1589 22.1205C34.7006 20.0717 34.8318 17.9189 34.5707 15.817C34.3067 13.6915 33.6738 11.625 32.692 9.72035C31.7241 7.84239 30.4124 6.1256 28.8205 4.73362C27.1639 3.28513 25.2182 2.19895 23.1315 1.5062C21.0513 0.815667 18.8314 0.517218 16.6424 0.622012C14.4343 0.727787 12.2552 1.24024 10.2457 2.16475C8.6439 2.90174 7.13916 3.90556 5.80772 5.05952C4.54087 6.15759 3.43189 7.44577 2.56841 8.88469C1.64022 10.4314 1.00398 12.1492 0.67072 13.9206C0.273851 16.0303 0.278877 18.1936 0.558818 20.3175C0.638364 20.9217 0.736661 21.5226 0.854447 22.1204C0.89281 22.3154 1.12544 22.427 1.30672 22.3772C1.51018 22.3213 1.6021 22.1204 1.56362 21.9249Z" fill="#F4F4F4"/>
<path d="M1.01562 22.6797C1.29005 22.7353 3.88613 32.3369 4.80991 35.7842C5.00185 36.5008 5.65108 36.9987 6.39285 36.9987H28.4825C29.2223 36.9987 29.8704 36.5031 30.0642 35.7891L33.6217 22.6797H1.01562Z" fill="#F4F4F4"/>
<path d="M14.413 28.7193C14.3909 28.7193 14.3697 28.7074 14.3587 28.6866C14.3428 28.6567 14.3544 28.6196 14.3843 28.6038L18.0606 26.6633C18.0906 26.6476 18.1277 26.659 18.1435 26.6889C18.1593 26.7188 18.1478 26.7559 18.1179 26.7718L14.4415 28.7122C14.4324 28.717 14.4226 28.7193 14.413 28.7193Z" fill="#FF6E00"/>
<path d="M7.41295 35.7353C7.39089 35.7353 7.36969 35.7234 7.35866 35.7026C7.34284 35.6727 7.35437 35.6355 7.38427 35.6197C8.59474 34.9808 13.9949 31.9023 14.0493 31.8713C14.0787 31.8546 14.1161 31.8648 14.1329 31.8942C14.1497 31.9236 14.1394 31.9611 14.11 31.9779C14.0556 32.0089 8.65369 35.0884 7.44151 35.7283C7.43244 35.7331 7.42264 35.7354 7.41295 35.7354V35.7353Z" fill="#FF6E00"/>
<path d="M5.48326 31.3221C5.4612 31.3221 5.44 31.3102 5.42897 31.2894C5.41316 31.2595 5.42468 31.2224 5.45458 31.2066L11.0796 28.2375C11.1097 28.2218 11.1466 28.2332 11.1625 28.2631C11.1783 28.293 11.1668 28.3302 11.1369 28.346L5.51182 31.315C5.50275 31.3198 5.49295 31.3221 5.48326 31.3221Z" fill="#FF6E00"/>
<path d="M13.0458 26.7763C13.0237 26.7763 13.0025 26.7644 12.9915 26.7435C12.9757 26.7136 12.9872 26.6765 13.0171 26.6607L15.9131 25.132C15.943 25.1164 15.9801 25.1278 15.9959 25.1577C16.0117 25.1876 16.0002 25.2247 15.9703 25.2405L13.0743 26.7692C13.0653 26.7739 13.0554 26.7763 13.0458 26.7763Z" fill="#FF6E00"/>
<path d="M17.1083 29.7527C17.0862 29.7527 17.065 29.7408 17.054 29.7199C17.0382 29.69 17.0497 29.6529 17.0796 29.6371L19.9756 28.1086C20.0052 28.093 20.0425 28.1042 20.0584 28.1342C20.0742 28.1641 20.0627 28.2012 20.0328 28.217L17.1368 29.7456C17.1278 29.7503 17.1179 29.7527 17.1083 29.7527Z" fill="#FF6E00"/>
<path d="M19.0613 26.361C19.0395 26.361 19.0184 26.3493 19.0073 26.3287C18.9913 26.299 19.0024 26.2618 19.0322 26.2456L22.4567 24.3978C22.4861 24.3821 22.5236 24.3928 22.5398 24.4227C22.5559 24.4525 22.5447 24.4896 22.5149 24.5058L19.0904 26.3536C19.0813 26.3585 19.0713 26.361 19.0614 26.361H19.0613Z" fill="#FF6E00"/>
<path d="M20.9815 27.3215C20.9636 27.3215 20.9457 27.3136 20.9335 27.2984L18.6853 24.4901C18.6642 24.4636 18.6684 24.4251 18.6949 24.4039C18.7212 24.3831 18.7598 24.3871 18.781 24.4135L21.0293 27.2218C21.0503 27.2483 21.0462 27.2868 21.0197 27.308C21.0084 27.3169 20.9949 27.3214 20.9815 27.3214V27.3215Z" fill="#FF6E00"/>
<path d="M22.7471 26.2784C22.7292 26.2784 22.7113 26.2705 22.6992 26.2553L20.4509 23.4471C20.4298 23.4206 20.434 23.3821 20.4605 23.3609C20.4867 23.3401 20.5256 23.3441 20.5466 23.3705L22.7949 26.1787C22.816 26.2052 22.8118 26.2437 22.7853 26.2649C22.774 26.2738 22.7606 26.2783 22.7471 26.2783V26.2784Z" fill="#FF6E00"/>
<path d="M18.7003 28.8839C18.6824 28.8839 18.6645 28.8761 18.6523 28.8609L16.4041 26.0526C16.3829 26.0262 16.3872 25.9877 16.4137 25.9665C16.4401 25.9454 16.4787 25.9498 16.4998 25.976L18.7482 28.7843C18.7693 28.8107 18.7651 28.8492 18.7386 28.8704C18.7273 28.8794 18.7139 28.8838 18.7004 28.8838L18.7003 28.8839Z" fill="#FF6E00"/>
<path d="M15.9426 29.3879C15.9245 29.3879 15.9068 29.3801 15.8946 29.3649L13.6463 26.5565C13.6251 26.5301 13.6294 26.4916 13.6558 26.4704C13.6823 26.4494 13.7208 26.4536 13.742 26.4799L15.9904 29.2883C16.0116 29.3148 16.0073 29.3532 15.9808 29.3745C15.9695 29.3834 15.9559 29.3878 15.9426 29.3878V29.3879Z" fill="#FF6E00"/>
<path d="M20.6316 33.5631C20.6096 33.5631 20.5883 33.5512 20.5774 33.5304C20.5616 33.5005 20.5731 33.4633 20.603 33.4475L24.2794 31.5071C24.3089 31.4914 24.3463 31.5026 24.3623 31.5327C24.3781 31.5626 24.3665 31.5997 24.3366 31.6155L20.6603 33.556C20.6512 33.5608 20.6414 33.5631 20.6317 33.5631H20.6316Z" fill="#FF6E00"/>
<path d="M19.2644 31.6239C19.2425 31.6239 19.2211 31.612 19.2102 31.5912C19.1944 31.5613 19.2059 31.5241 19.2358 31.5083L22.1318 29.9797C22.1615 29.9641 22.1989 29.9753 22.2147 30.0053C22.2305 30.0352 22.219 30.0723 22.1891 30.0881L19.2931 31.6168C19.284 31.6216 19.2742 31.6239 19.2645 31.6239H19.2644Z" fill="#FF6E00"/>
<path d="M23.3269 34.5964C23.305 34.5964 23.2836 34.5845 23.2727 34.5637C23.2569 34.5338 23.2684 34.4967 23.2983 34.4808L26.1943 32.9523C26.224 32.9368 26.2613 32.9479 26.2772 32.9779C26.293 33.0078 26.2815 33.045 26.2516 33.0608L23.3556 34.5893C23.3465 34.5941 23.3367 34.5964 23.327 34.5964H23.3269Z" fill="#FF6E00"/>
<path d="M25.2878 31.2047C25.266 31.2047 25.2449 31.1931 25.2339 31.1725C25.2179 31.1427 25.229 31.1056 25.2588 31.0894L28.6833 29.2416C28.7127 29.2259 28.7502 29.2366 28.7664 29.2665C28.7824 29.2962 28.7713 29.3334 28.7415 29.3496L25.317 31.1974C25.3078 31.2023 25.2979 31.2047 25.288 31.2047H25.2878Z" fill="#FF6E00"/>
<path d="M27.2002 32.1652C27.1823 32.1652 27.1644 32.1574 27.1523 32.1422L24.904 29.3338C24.883 29.3073 24.8871 29.2689 24.9136 29.2477C24.9398 29.2268 24.9786 29.2309 24.9998 29.2572L27.248 32.0656C27.2691 32.0921 27.2649 32.1305 27.2384 32.1517C27.2272 32.1607 27.2137 32.1651 27.2002 32.1651V32.1652Z" fill="#FF6E00"/>
<path d="M28.966 31.126C28.9481 31.126 28.9302 31.1182 28.918 31.103L26.6697 28.2948C26.6486 28.2683 26.6528 28.2298 26.6792 28.2086C26.7055 28.1878 26.7443 28.1918 26.7654 28.2182L29.0138 31.0264C29.0348 31.0529 29.0307 31.0914 29.0042 31.1126C28.9929 31.1215 28.9794 31.126 28.966 31.126Z" fill="#FF6E00"/>
<path d="M24.9191 33.7237C24.9012 33.7237 24.8833 33.7159 24.8712 33.7007L22.6228 30.8925C22.6017 30.866 22.6059 30.8275 22.6324 30.8063C22.6587 30.7855 22.6973 30.7894 22.7185 30.8158L24.9669 33.6241C24.988 33.6506 24.9838 33.689 24.9573 33.7103C24.946 33.7192 24.9326 33.7237 24.9191 33.7237Z" fill="#FF6E00"/>
<path d="M22.1613 34.2356C22.1434 34.2356 22.1255 34.2277 22.1133 34.2125L19.865 31.4042C19.8439 31.3777 19.8481 31.3392 19.8745 31.318C19.9009 31.2972 19.9395 31.3011 19.9607 31.3276L22.2091 34.1359C22.2301 34.1624 22.226 34.2009 22.1995 34.2221C22.1882 34.231 22.1747 34.2356 22.1613 34.2356Z" fill="#FF6E00"/>
<path d="M11.3958 35.1423C11.3787 35.1423 11.3618 35.1352 11.3497 35.1214L6.70269 29.8165C6.68039 29.7911 6.68296 29.7524 6.70833 29.7301C6.7337 29.7078 6.77256 29.7102 6.79486 29.7358L11.4418 35.0407C11.4641 35.0661 11.4616 35.1048 11.4362 35.1271C11.4246 35.1373 11.4102 35.1423 11.3958 35.1423Z" fill="#FF6E00"/>
<path d="M10.318 30.2152C10.3003 30.2152 10.2826 30.2076 10.2705 30.1926L8.74822 28.3306C8.72677 28.3044 8.73069 28.2659 8.75692 28.2444C8.78302 28.2229 8.82163 28.2267 8.8432 28.253L10.3655 30.1151C10.3869 30.1413 10.383 30.1798 10.3568 30.2012C10.3454 30.2105 10.3316 30.2151 10.318 30.2151V30.2152Z" fill="#FF6E00"/>
<path d="M6.42742 32.6409C6.40965 32.6409 6.392 32.6332 6.37986 32.6183L4.85759 30.7564C4.83614 30.7302 4.84006 30.6917 4.86629 30.6702C4.8924 30.6487 4.93101 30.6525 4.95258 30.6788L6.47485 32.5407C6.4963 32.5669 6.49238 32.6054 6.46615 32.6269C6.45475 32.6362 6.44102 32.6407 6.42742 32.6407V32.6409Z" fill="#FF6E00"/>
<path d="M14.0814 34.9048C14.0635 34.9048 14.0457 34.8971 14.0336 34.882L11.3495 31.5569C11.3283 31.5306 11.3324 31.4919 11.3587 31.4707C11.3851 31.4492 11.4237 31.4537 11.4449 31.4798L14.129 34.8049C14.1502 34.8313 14.1461 34.8699 14.1198 34.8911C14.1085 34.9003 14.0948 34.9047 14.0814 34.9047V34.9048Z" fill="#FF6E00"/>
<path d="M12.2723 35.4741C12.2511 35.4741 12.2304 35.4631 12.2191 35.4434C12.2022 35.414 12.2124 35.3766 12.2418 35.3597L14.9184 33.8245C14.9477 33.8077 14.9852 33.8178 15.002 33.8472C15.0189 33.8766 15.0087 33.914 14.9793 33.9309L12.3027 35.4661C12.2931 35.4716 12.2826 35.4741 12.2723 35.4741Z" fill="#FF6E00"/>
<path d="M7.33474 32.7029C7.31268 32.7029 7.29135 32.6909 7.28045 32.67C7.26476 32.64 7.27628 32.603 7.30631 32.5872L10.0397 31.1552C10.0696 31.1399 10.1066 31.1513 10.1224 31.1811C10.1381 31.2111 10.1266 31.2481 10.0965 31.264L7.36318 32.6959C7.35411 32.7006 7.34443 32.7029 7.33487 32.7029H7.33474Z" fill="#FF6E00"/>
<path d="M8.79164 35.7351C8.77326 35.7351 8.75499 35.7269 8.74298 35.7112L7.36423 33.9149C7.34364 33.8879 7.34867 33.8495 7.37551 33.829C7.40235 33.8085 7.44096 33.8136 7.46143 33.8402L8.84018 35.6366C8.86077 35.6635 8.85574 35.7019 8.8289 35.7225C8.81787 35.7309 8.80463 35.7352 8.79164 35.7352V35.7351Z" fill="#FF6E00"/>
<path d="M34.3948 21.0234H0.700525C0.322265 21.0234 0.015625 21.3301 0.015625 21.7083V22.409C0.015625 22.7873 0.322265 23.0939 0.700525 23.0939H34.3948C34.7731 23.0939 35.0797 22.7873 35.0797 22.409V21.7083C35.0797 21.3301 34.7731 21.0234 34.3948 21.0234Z" fill="#F4F4F4"/>
<path opacity="0.3" d="M1.21094 23.0977L1.67963 24.5491H33.1523L33.5074 23.0977H1.21094Z" fill="#4C4C4C"/>
<path d="M2.74219 21.0273C2.74219 21.0273 17.6651 30.191 20.0874 28.9799C22.5097 27.7689 32.6165 21.0273 32.6165 21.0273H2.74219Z" fill="#D0D0D0"/>
<path d="M28.2628 21.0165L16.2656 28.2148L16.2815 28.2412L28.2787 21.0428L28.2628 21.0165Z" fill="#D0D0D0"/>
<path d="M13.1404 26.8151L13.125 26.7885L23.0879 20.9805L23.1032 21.0069L13.1404 26.8151Z" fill="#D0D0D0"/>
<path d="M10.3983 25.4089L10.3828 25.3824L17.9336 20.9805L17.9491 21.0069L10.3983 25.4089Z" fill="#D0D0D0"/>
<path d="M7.55451 23.7836L7.53906 23.757L12.3017 20.9805L12.3172 21.0069L7.55451 23.7836Z" fill="#D0D0D0"/>
<path d="M21.1342 28.2024L8.65625 21.0422L8.67145 21.0156L21.1495 28.1758L21.1342 28.2024Z" fill="#D0D0D0"/>
<path d="M13.8355 20.9812L13.8203 21.0078L23.7232 26.677L23.7384 26.6504L13.8355 20.9812Z" fill="#D0D0D0"/>
<path d="M26.1343 25.1797L18.9766 21.0069L18.9919 20.9805L26.1496 25.1532L26.1343 25.1797Z" fill="#D0D0D0"/>
<path d="M28.8341 23.4698L24.6094 21.0069L24.6247 20.9805L28.8494 23.4432L28.8341 23.4698Z" fill="#D0D0D0"/>
<path opacity="0.6" d="M2.74219 21.0273C2.74219 21.0273 17.6651 30.191 20.0874 28.9799C22.5097 27.7689 32.6165 21.0273 32.6165 21.0273H2.74219Z" fill="#D0D0D0"/>
</svg>
